{"title":"Neighbors (2014) WEB-DLRip [Rus]","uid":10623270,"size":1466720256,"categoryP":"video","categoryS":"movies","magnet":"?xt=urn:btih:b13dbd231f1958be918dfbb4ffb8e35a580d34af&amp;dn=Neighbors+%282014%29+WEB-DLRip+%5BRus%5D&amp;tr=udp%3A%2F%2Ftracker.openbittorrent.com%3A80&amp;tr=udp%3A%2F%2Fopen.demonii.com%3A1337&amp;tr=udp%3A%2F%2Ftracker.coppersurfer.tk%3A6969&amp;tr=udp%3A%2F%2Fexodus.desync.com%3A6969","seeders":3,"leechers":0,"uploader":"yfjfrj","files":1,"time":1406195154,"description":"A couple with a newborn baby face unexpected difficulties after they are forced to live next to a fraternity house.\n\nAudio - Russian Dub (TS)\n\nMI:\nGeneral\nComplete name                            : D:moviesMa1efisenta.2014.D.CAMRip.700MB.avi\nFormat                                   : AVI\nFormat/Info                              : Audio Video Interleave\nFile size                                : 703 MiB\nDuration                                 : 1h 27mn\nOverall bit rate                         : 1 123 Kbps\nWriting application                      : VirtualDubMod 1.5.10.2 (build 2540/release)\nWriting library                          : VirtualDubMod build 2540/release\n\nVideo\nID                                       : 0\nFormat                                   : MPEG-4 Visual\nFormat profile                           : Advanced Simple@L5\nFormat settings, BVOP                    : 2\nFormat settings, QPel                    : No\nFormat settings, GMC                     : No warppoints\nFormat settings, Matrix                  : Default (MPEG)\nCodec ID                                 : XVID\nCodec ID/Hint                            : XviD\nDuration                                 : 1h 27mn\nBit rate                                 : 986 Kbps\nWidth                                    : 720 pixels\nHeight                                   : 304 pixels\nDisplay aspect ratio                     : 2.35:1\nFrame rate                               : 23.976 fps\nColor space                              : YUV\nChroma subsampling                       : 4:2:0\nBit depth                                : 8 bits\nScan type                                : Progressive\nCompression mode                         : Lossy\nBits/(Pixel*Frame)                       : 0.188\nStream size                              : 617 MiB (88%)\nWriting library                          : XviD 1.2.1 (UTC 2008-12-04)\n\nAudio\nID                                       : 1\nFormat                                   : MPEG Audio\nFormat version                           : Version 1\nFormat profile                           : Layer 3\nCodec ID                                 : 55\nCodec ID/Hint                            : MP3\nDuration                                 : 1h 27mn\nBit rate mode                            : Constant\nBit rate                                 : 128 Kbps\nChannel(s)                               : 2 channels\nSampling rate                            : 44.1 KHz\nCompression mode                         : Lossy\nStream size                              : 80.1 MiB (11%)\nAlignment                                : Split accross interleaves\nInterleave, duration                     : 42 ms (1.00 video frame)\nInterleave, preload duration             : 500 ms\n\nScreens: &lt;a href=&quot;\nhttp://i6.imageban.ru/out/2014/07/24/d5bfb2e9c4360f2e93238c98cac2a424.png&quot; rel=&quot;nofollow&quot; target=&quot;_NEW&quot;&gt;\nhttp://i6.imageban.ru/out/2014/07/24/d5bfb2e9c4360f2e93238c98cac2a424.png&lt;/a&gt; &lt;a href=&quot;\nhttp://i6.imageban.ru/out/2014/07/24/923709fe4cc55ad5d229c1e65f4832ed.png&quot; rel=&quot;nofollow&quot; target=&quot;_NEW&quot;&gt;\nhttp://i6.imageban.ru/out/2014/07/24/923709fe4cc55ad5d229c1e65f4832ed.png&lt;/a&gt; &lt;a href=&quot;\nhttp://i4.imageban.ru/out/2014/07/24/9ab4ea3e84777d87009cc1f9c5284bc1.png&quot; rel=&quot;nofollow&quot; target=&quot;_NEW&quot;&gt;\nhttp://i4.imageban.ru/out/2014/07/24/9ab4ea3e84777d87009cc1f9c5284bc1.png&lt;/a&gt; &lt;a href=&quot;\nhttp://i4.imageban.ru/out/2014/07/24/ec518fc198bf25c9386cfa5c03f3f01a.png&quot; rel=&quot;nofollow&quot; target=&quot;_NEW&quot;&gt;\nhttp://i4.imageban.ru/out/2014/07/24/ec518fc198bf25c9386cfa5c03f3f01a.png&lt;/a&gt; &lt;a href=&quot;\nhttp://i6.imageban.ru/out/2014/07/24/6686d0fc53f81abdd7b7b954dc1fe5f4.png&quot; rel=&quot;nofollow&quot; target=&quot;_NEW&quot;&gt;\nhttp://i6.imageban.ru/out/2014/07/24/6686d0fc53f81abdd7b7b954dc1fe5f4.png&lt;/a&gt;","torrent":{"xt":"urn:btih:b13dbd231f1958be918dfbb4ffb8e35a580d34af","amp;dn":"Neighbors+%282014%29+WEB-DLRip+%5BRus%5D","amp;tr":["udp%3A%2F%2Ftracker.openbittorrent.com%3A80","udp%3A%2F%2Fopen.demonii.com%3A1337","udp%3A%2F%2Ftracker.coppersurfer.tk%3A6969","udp%3A%2F%2Fexodus.desync.com%3A6969"],"infoHash":"b13dbd231f1958be918dfbb4ffb8e35a580d34af","infoHashBuffer":{"type":"Buffer","data":[177,61,189,35,31,25,88,190,145,141,251,180,255,184,227,90,88,13,52,175]},"announce":[],"urlList":[]}}